<svg version="1.1" xmlns="http://www.w3.org/2000/svg" xmlns:xlink="http://www.w3.org/1999/xlink" width="156.35999" height="66.64498" viewBox="0,0,156.35999,66.64498"><g transform="translate(-161.48721,-146.67751)"><g data-paper-data="{&quot;isPaintingLayer&quot;:true}" fill-rule="nonzero" stroke-linejoin="miter" stroke-miterlimit="10" stroke-dasharray="" stroke-dashoffset="0" style="mix-blend-mode: normal"><g><g fill="none" stroke="#5c913b" stroke-width="3" stroke-linecap="round"><g><path d="M199.84849,211.82249c0,0 -0.5692,-1.69605 -0.81504,-2.50413c-0.24855,-0.81696 0.06618,-2.46859 0.06618,-2.46859"/><path d="M207.52587,211.17897c0,0 -1.24912,-1.28075 -1.82139,-1.90196c-0.57859,-0.62804 -1.01213,-2.25254 -1.01213,-2.25254"/><path d="M214.14541,208.93587c0,0 -1.43809,-1.06419 -2.10247,-1.58574c-0.67169,-0.52728 -1.35979,-2.06139 -1.35979,-2.06139"/></g><g><g><path d="M177.94188,182.49759c0,0 1.68976,-0.58481 2.45707,-0.94294c0.77574,-0.36208 2.46621,-0.21224 2.46621,-0.21224"/><path d="M182.08694,192.18851c0,0 0.64688,-2.01478 1.20802,-2.6489c0.56733,-0.6411 2.17759,-1.17702 2.17759,-1.17702"/><path d="M185.86969,200.36697c0,0 1.20553,-1.7391 1.92702,-2.18233c0.72942,-0.44811 2.42595,-0.49191 2.42595,-0.49191"/><path d="M192.70493,209.06227c0,0 -0.34135,-1.75616 -0.47886,-2.58953c-0.139,-0.84254 0.39005,-2.43847 0.39005,-2.43847"/></g><g><g><path d="M217.48884,165.35961c0,0 -1.99126,1.53092 -2.68639,1.87904c-0.67305,0.33707 -2.25229,0.79654 -2.25229,0.79654"/><path d="M220.24117,202.26766c0,0 -1.76871,-0.26884 -2.5998,-0.41949c-0.84024,-0.1523 -2.16545,-1.18707 -2.16545,-1.18707"/><path d="M222.93418,194.94484c0,0 -1.71524,0.50854 -2.53152,0.72548c-0.82528,0.21934 -2.46467,-0.15393 -2.46467,-0.15393"/><path d="M222.4232,176.45994c0,0 -1.65125,0.68844 -2.43978,0.99115c-0.7972,0.30604 -2.46704,0.10964 -2.46704,0.10964"/><path d="M223.65062,186.68618c0,0 -1.69087,0.58443 -2.49669,0.83753c-0.81469,0.25589 -2.46907,-0.04397 -2.46907,-0.04397"/></g><g><path d="M199.33038,150.61266c0,0 0.01913,1.29153 -0.36905,1.96512c-0.37584,0.65221 -1.44034,1.90597 -1.44034,1.90597"/><path d="M205.93873,154.38003c0,0 -0.62339,1.11292 -1.04531,1.76591c-0.40852,0.63225 -1.53541,1.83025 -1.53541,1.83025"/><path d="M211.86509,158.97297c0,0 -0.62338,1.11291 -1.0453,1.76589c-0.40853,0.63225 -1.53543,1.83025 -1.53543,1.83025"/><g><path d="M167.00786,151.84197c0,0 2.02842,0.60273 2.67464,1.14989c0.65334,0.55318 1.22428,2.15136 1.22428,2.15136"/><path d="M162.98721,157.84205c0,0 2.09937,-0.2653 2.91125,-0.02476c0.8208,0.2432 1.98708,1.47604 1.98708,1.47604"/><path d="M163.276,165.89179c0,0 1.73787,-1.20728 2.56884,-1.37004c0.84011,-0.16453 2.44471,0.38811 2.44471,0.38811"/><path d="M166.43039,172.64773c0,0 1.43369,-1.55636 2.20937,-1.89596c0.7842,-0.34332 2.47058,-0.74555 2.47058,-0.74555"/><path d="M173.32692,177.09168c0,0 1.52896,-1.46288 2.32452,-1.75288c0.8043,-0.29319 2.47531,0.00317 2.47531,0.00317"/><g><path d="M179.46131,148.17751c0,0 1.37609,1.60752 1.62166,2.41789c0.24826,0.81927 -0.14006,2.47135 -0.14006,2.47135"/><path d="M185.98032,148.17751c0,0 0.44448,1.44495 0.44448,2.22239c0,0.75274 -0.44448,2.37055 -0.44448,2.37055"/><path d="M192.203,148.62199c0,0 0,1.14864 0,1.92607c0,0.75274 -0.29631,2.37055 -0.29631,2.37055"/><path d="M173.97943,148.77014c0,0 1.37609,1.60754 1.62166,2.4179c0.24826,0.81927 -0.14006,2.47135 -0.14006,2.47135"/></g></g></g></g></g></g><path d="M185.11711,178.88354c-5.45609,-9.40114 -16.81078,-11.76914 -15.55671,-17.33463c1.19197,-5.28989 10.65283,-8.13752 19.86076,-7.34643c8.04162,0.69089 16.69512,6.76529 19.54956,9.56881c8.30669,8.15852 11.52127,28.68552 3.85215,37.78059c-2.90495,3.44505 -10.62098,7.13279 -16.64218,1.36443c-5.74115,-5.50005 -3.43679,-10.89141 -11.06358,-24.03277z" fill="#77b255" stroke="#3e721d" stroke-width="3" stroke-linecap="butt"/><g fill="none" stroke="none" stroke-width="1" stroke-linecap="butt" font-family="sans-serif" font-weight="normal" font-size="12" text-anchor="start"><g/><g/></g></g><g fill="#000000" stroke="#000000" stroke-linecap="butt" font-family="&quot;ヒラギノ角ゴ Pro W3&quot;, &quot;Hiragino Kaku Gothic Pro&quot;, Osaka, &quot;メイリオ&quot;, Meiryo, &quot;ＭＳ Ｐゴシック&quot;, &quot;MS PGothic&quot;" font-weight="normal" font-size="40" text-anchor="start"><text transform="translate(234.96993,182.61385) scale(0.41463,0.41463)" font-size="40" xml:space="preserve" fill="#000000" fill-rule="nonzero" stroke="#000000" stroke-width="2" stroke-linecap="butt" stroke-linejoin="miter" stroke-miterlimit="10" stroke-dasharray="" stroke-dashoffset="0" font-family="&quot;ヒラギノ角ゴ Pro W3&quot;, &quot;Hiragino Kaku Gothic Pro&quot;, Osaka, &quot;メイリオ&quot;, Meiryo, &quot;ＭＳ Ｐゴシック&quot;, &quot;MS PGothic&quot;" font-weight="normal" text-anchor="start" style="mix-blend-mode: normal"><tspan x="0" dy="0">COVID-19</tspan></text><text transform="translate(234.96993,193.01474) scale(0.18043,0.18043)" font-size="40" xml:space="preserve" fill="#000000" fill-rule="nonzero" stroke="#000000" stroke-width="1" stroke-linecap="butt" stroke-linejoin="miter" stroke-miterlimit="10" stroke-dasharray="" stroke-dashoffset="0" font-family="&quot;ヒラギノ角ゴ Pro W3&quot;, &quot;Hiragino Kaku Gothic Pro&quot;, Osaka, &quot;メイリオ&quot;, Meiryo, &quot;ＭＳ Ｐゴシック&quot;, &quot;MS PGothic&quot;" font-weight="normal" text-anchor="start" style="mix-blend-mode: normal"><tspan x="0" dy="0">Data Getter</tspan></text></g><path d="M171.6902,161.24046c0.85749,-3.45038 47.61204,29.63002 39.94292,38.72509c-2.90495,3.44505 -8.19742,7.04465 -14.21862,1.2763c-5.74115,-5.50005 -3.7866,-11.01254 -11.23983,-24.2531c-4.71851,-8.38237 -15.97833,-9.74079 -14.48446,-15.74828z" fill="#5f9a3d" stroke="#3e721d" stroke-width="0" stroke-linecap="butt"/><path d="M193.35322,169.67086l2.57779,2.57779" fill="none" stroke="#276619" stroke-width="2" stroke-linecap="round"/><path d="M204.58591,166.92395l-1.05724,3.48888" fill="none" stroke="#276619" stroke-width="2" stroke-linecap="round"/><path d="M207.64841,176.69186c0,0 -0.904,2.02503 -4.95125,2.7596c-2.59959,0.47182 -6.28878,-0.11489 -6.28878,-0.11489" fill="none" stroke="#276619" stroke-width="2" stroke-linecap="round"/><path d="M204.09034,179.32105l1.55696,2.33544" fill="none" stroke="#276619" stroke-width="2" stroke-linecap="round"/><path d="M205.71331,181.43676l0.07148,-2.89477" data-paper-data="{&quot;index&quot;:null}" fill="none" stroke="#276619" stroke-width="2" stroke-linecap="round"/></g></g></svg>